<?xml version="1.0" encoding="UTF-8" standalone="no"?>
<!DOCTYPE svg PUBLIC "-//W3C//DTD SVG 1.1//EN" "http://www.w3.org/Graphics/SVG/1.1/DTD/svg11.dtd">
<svg width="100%" height="100%" viewBox="0 0 470 210" version="1.1" xmlns="http://www.w3.org/2000/svg" xmlns:xlink="http://www.w3.org/1999/xlink" xml:space="preserve" xmlns:serif="http://www.serif.com/" style="fill-rule:evenodd;clip-rule:evenodd;">
    <g id="Layer_1">
        <g transform="matrix(1,0,0,1,-16.81,-1.6875)">
            <rect x="127.602" y="134.659" width="42.562" height="24.473" style="fill-opacity:0;fill-rule:nonzero;stroke:white;stroke-width:11px;"/>
        </g>
        <g transform="matrix(1,0,0,1,-16.81,-1.6875)">
            <rect x="65.385" y="159.132" width="104.779" height="24.473" style="fill-opacity:0;fill-rule:nonzero;stroke:white;stroke-width:11px;"/>
        </g>
        <g transform="matrix(1,0,0,1,-16.81,-1.6875)">
            <rect x="22.823" y="134.659" width="104.779" height="24.473" style="fill-opacity:0;fill-rule:nonzero;stroke:white;stroke-width:11px;"/>
        </g>
        <g transform="matrix(1,0,0,1,-16.81,-1.6875)">
            <rect x="22.822" y="159.132" width="42.563" height="24.473" style="fill-opacity:0;fill-rule:nonzero;stroke:white;stroke-width:11px;"/>
        </g>
        <g transform="matrix(1,0,0,1,-16.81,-1.6875)">
            <path d="M46.828,109.865L47.158,36.311L22.822,24.873L22.822,109.865L46.828,109.865Z" style="fill-opacity:0;fill-rule:nonzero;stroke:white;stroke-width:11px;"/>
        </g>
        <g transform="matrix(1.07484,0,0,1,-20.3394,-1.6875)">
            <rect x="47.158" y="61.089" width="24.006" height="48.776" style="fill-opacity:0;fill-rule:nonzero;stroke:white;stroke-width:11px;"/>
        </g>
        <g transform="matrix(1,0,0,1,165.542,112.815)">
            <text x="0px" y="0px" style="font-family:'DINCondensed-Bold', 'DIN Condensed';font-weight:700;font-stretch:condensed;font-size:84px;fill:white;">PLA<tspan x="94.836px 122.724px " y="0px 0px ">TF</tspan>ORM</text>
        </g>
        <g transform="matrix(1,0,0,1,-16.81,-1.6875)">
            <rect x="73.158" y="73.395" width="24.006" height="36.47" style="fill-opacity:0;fill-rule:nonzero;stroke:white;stroke-width:11px;"/>
        </g>
        <g transform="matrix(1,0,0,1,-16.81,-1.6875)">
            <rect x="98.158" y="43.315" width="24.006" height="66.55" style="fill-opacity:0;fill-rule:nonzero;stroke:white;stroke-width:11px;"/>
        </g>
        <g transform="matrix(1,0,0,1,-16.81,-1.6875)">
            <rect x="122.158" y="82.549" width="24.006" height="27.316" style="fill-opacity:0;fill-rule:nonzero;stroke:white;stroke-width:11px;"/>
        </g>
        <g transform="matrix(1,0,0,1,-16.81,-1.6875)">
            <path d="M170.164,109.865L170.164,57.215L146.164,65.768L146.158,109.865L170.164,109.865Z" style="fill-opacity:0;fill-rule:nonzero;stroke:white;stroke-width:11px;"/>
        </g>
        <g transform="matrix(1,0,0,1,-16.81,-1.6875)">
            <path d="M16.81,121.79L450.445,121.409" style="fill:none;"/>
            <path d="M16.81,121.79L450.445,121.409" style="fill-opacity:0;fill-rule:nonzero;stroke:white;stroke-width:3px;"/>
        </g>
        <g transform="matrix(1,0,0,1,165.542,186.814)">
            <text x="0px" y="0px" style="font-family:'DINCondensed-Bold', 'DIN Condensed';font-weight:700;font-stretch:condensed;font-size:84px;fill:white;">LAND</text>
        </g>
        <g transform="matrix(1,0,0,1,-16.81,-1.6875)">
            <rect x="294.369" y="183.105" width="1.24" height="4.65" style="fill:white;fill-rule:nonzero;"/>
        </g>
        <g transform="matrix(1,0,0,1,-16.81,-1.6875)">
            <rect x="192.06" y="179.384" width="0.31" height="3.721" style="fill:white;fill-rule:nonzero;"/>
        </g>
    </g>
</svg>
